<svg width="20" height="20" viewBox="0 0 20 20" fill="none" xmlns="http://www.w3.org/2000/svg">
<path d="M10 0C12.7137 0 13.055 0.0125 14.1213 0.06C15.1875 0.11 15.9138 0.2775 16.55 0.525C17.2174 0.776024 17.8219 1.16978 18.3212 1.67875C18.8299 2.17837 19.2236 2.7828 19.475 3.45C19.7225 4.085 19.8912 4.8125 19.94 5.875C19.9875 6.94375 20 7.28375 20 10.0013C20 12.7163 19.9875 13.0563 19.94 14.1225C19.89 15.1875 19.7225 15.9137 19.475 16.55C19.2188 17.2075 18.8775 17.765 18.3212 18.3212C17.7662 18.8775 17.2088 19.22 16.5512 19.475C15.9137 19.7225 15.1887 19.8912 14.1237 19.94C13.0562 19.9875 12.7162 20 10 20C7.28375 20 6.945 19.9875 5.8775 19.94C4.81375 19.89 4.085 19.7225 3.44875 19.475C2.7818 19.2239 2.17773 18.8301 1.67875 18.3212C1.1225 17.765 0.78125 17.2075 0.525 16.55C0.278749 15.9137 0.110001 15.1875 0.0600014 14.1225C0.0125008 13.0563 0 12.7163 0 10C0 7.28375 0.0125008 6.94375 0.0600014 5.87625C0.110001 4.8125 0.278749 4.085 0.525 3.45C0.776348 2.78278 1.17006 2.17834 1.67875 1.67875C2.17796 1.16959 2.78251 0.775807 3.45 0.525C4.0875 0.2775 4.815 0.10875 5.87875 0.06C6.94625 0.0125 7.285 0 10.0025 0H9.99875H10ZM10.8962 1.8025H9.99875C7.32875 1.8025 7.0125 1.81125 5.95875 1.86C4.98375 1.90375 4.45375 2.0675 4.10125 2.20375C3.635 2.385 3.30125 2.6025 2.95125 2.9525C2.60125 3.3025 2.385 3.635 2.20375 4.1025C2.06625 4.45375 1.90375 4.98375 1.86 5.95875C1.81125 7.0125 1.80125 7.32875 1.80125 9.9975C1.80125 12.6663 1.81125 12.9837 1.86 14.0375C1.90375 15.0125 2.0675 15.5413 2.20375 15.8938C2.36407 16.3279 2.61997 16.7205 2.9525 17.0425C3.3025 17.3925 3.635 17.6088 4.1025 17.79C4.4525 17.9275 4.9825 18.09 5.95875 18.135C7.0125 18.1825 7.32875 18.1938 9.99875 18.1938C12.6687 18.1938 12.9862 18.1825 14.04 18.135C15.015 18.09 15.5437 17.9275 15.8962 17.79C16.3306 17.6299 16.7236 17.3745 17.0463 17.0425C17.3791 16.72 17.6353 16.3271 17.7962 15.8925C17.9325 15.5412 18.0962 15.0113 18.14 14.0363C18.1875 12.9825 18.1975 12.6663 18.1975 9.995C18.1975 7.325 18.1875 7.01 18.14 5.95625C18.095 4.98125 17.9325 4.45125 17.795 4.09875C17.6137 3.6325 17.3963 3.29875 17.0463 2.94875C16.6963 2.59875 16.3637 2.3825 15.8962 2.20125C15.5437 2.06375 15.015 1.90125 14.04 1.85625C13.1175 1.81375 12.76 1.80125 10.8962 1.8V1.8025ZM4.66125 3.4625C4.81884 3.4625 4.97488 3.49354 5.12047 3.55384C5.26606 3.61415 5.39835 3.70254 5.50978 3.81397C5.62121 3.9254 5.7096 4.05769 5.76991 4.20328C5.83021 4.34887 5.86125 4.50491 5.86125 4.6625C5.86125 4.82009 5.83021 4.97613 5.76991 5.12172C5.7096 5.26731 5.62121 5.3996 5.50978 5.51103C5.39835 5.62246 5.26606 5.71085 5.12047 5.77116C4.97488 5.83146 4.81884 5.8625 4.66125 5.8625C4.34299 5.8625 4.03777 5.73607 3.81272 5.51103C3.58768 5.28598 3.46125 4.98076 3.46125 4.6625C3.46125 4.34424 3.58768 4.03902 3.81272 3.81397C4.03777 3.58893 4.34299 3.4625 4.66125 3.4625ZM9.99875 4.865C10.6799 4.85437 11.3564 4.97936 11.9888 5.23268C12.6212 5.486 13.1969 5.86259 13.6823 6.34053C14.1678 6.81847 14.5533 7.38821 14.8164 8.01657C15.0796 8.64494 15.2151 9.31938 15.2151 10.0006C15.2151 10.6819 15.0796 11.3563 14.8164 11.9847C14.5533 12.613 14.1678 13.1828 13.6823 13.6607C13.1969 14.1387 12.6212 14.5153 11.9888 14.7686C11.3564 15.0219 10.6799 15.1469 9.99875 15.1363C8.65057 15.1152 7.36473 14.5649 6.41878 13.6041C5.47282 12.6432 4.94262 11.349 4.94263 10.0006C4.94262 8.65228 5.47282 7.35802 6.41878 6.39719C7.36473 5.43636 8.65057 4.88603 9.99875 4.865ZM9.99875 6.66625C9.11458 6.66625 8.26663 7.01748 7.64143 7.64268C7.01623 8.26788 6.665 9.11583 6.665 10C6.665 10.8842 7.01623 11.7321 7.64143 12.3573C8.26663 12.9825 9.11458 13.3337 9.99875 13.3337C10.8829 13.3337 11.7309 12.9825 12.3561 12.3573C12.9813 11.7321 13.3325 10.8842 13.3325 10C13.3325 9.11583 12.9813 8.26788 12.3561 7.64268C11.7309 7.01748 10.8829 6.66625 9.99875 6.66625Z" fill="white"/>
</svg>
