<svg width="20" height="25" viewBox="0 0 20 25" fill="none" xmlns="http://www.w3.org/2000/svg">
<path d="M9.82144 0C12.4253 0.00307185 14.9216 1.03881 16.7628 2.88002C18.6041 4.72123 19.6398 7.21757 19.6429 9.82143C19.646 11.9493 18.9509 14.0194 17.6643 15.7143C17.6643 15.7143 17.3964 16.067 17.3527 16.1179L9.82144 25L2.28662 16.1134C2.24733 16.0661 1.97858 15.7143 1.97858 15.7143L1.97769 15.7116C0.691704 14.0175 -0.00304222 11.9483 9.53674e-06 9.82143C0.00308228 7.21757 1.03882 4.72123 2.88003 2.88002C4.72124 1.03881 7.21758 0.00307185 9.82144 0ZM9.82144 13.3929C10.5278 13.3929 11.2183 13.1834 11.8056 12.791C12.3929 12.3985 12.8507 11.8407 13.121 11.1882C13.3913 10.5356 13.462 9.81747 13.3242 9.12468C13.1864 8.43189 12.8463 7.79552 12.3468 7.29605C11.8473 6.79657 11.211 6.45643 10.5182 6.31862C9.8254 6.18082 9.10731 6.25155 8.45471 6.52186C7.80212 6.79217 7.24434 7.24993 6.8519 7.83725C6.45947 8.42457 6.25001 9.11507 6.25001 9.82143C6.25119 10.7683 6.62785 11.676 7.29736 12.3455C7.96688 13.015 8.8746 13.3917 9.82144 13.3929Z" fill="white"/>
</svg>
