<svg width="35" height="20" viewBox="0 0 35 20" fill="none" xmlns="http://www.w3.org/2000/svg">
<path d="M34.9452 1.47505C35.2428 2.24094 34.3288 4.02801 32.2031 6.83627C31.9055 7.21922 31.5229 7.72981 31.0553 8.36805C30.0775 9.55944 29.5249 10.3466 29.3973 10.7295C29.1848 11.2401 29.2698 11.7295 29.6524 12.1975C29.865 12.4528 30.3538 12.9634 31.1191 13.7293H31.1828V13.7931C32.9258 15.3674 34.0949 16.7077 34.6901 17.814L34.8176 18.0693L34.9452 18.548V19.1543L34.4988 19.633L33.4147 19.8564L28.7596 19.984C28.462 20.0266 28.1113 19.984 27.7074 19.8564C27.3036 19.7287 26.9954 19.6011 26.7828 19.4735L26.4002 19.2182C26.0176 18.9629 25.5925 18.5799 25.1248 18.0693C24.6572 17.5587 24.2427 17.0907 23.8813 16.6652C23.52 16.2397 23.148 15.8887 22.7654 15.6121C22.3828 15.3355 22.0427 15.2398 21.7451 15.3249C21.7026 15.3249 21.6494 15.3462 21.5857 15.3887C21.5219 15.4313 21.4156 15.527 21.2668 15.6759C21.118 15.8248 20.9905 16.0057 20.8842 16.2184C20.7779 16.4312 20.6823 16.7397 20.5973 17.1439C20.5122 17.5481 20.4697 18.0268 20.4697 18.5799C20.4697 18.7501 20.4485 18.9097 20.4059 19.0586C20.3634 19.2075 20.3209 19.3245 20.2784 19.4096L20.2146 19.4735C19.9596 19.7287 19.6195 19.8564 19.1943 19.8564H17.1537C16.261 19.9415 15.3576 19.8564 14.4436 19.6011C13.5296 19.3458 12.7325 19.016 12.0523 18.6118C11.3721 18.2076 10.7556 17.8034 10.203 17.3992C9.65031 16.9949 9.22519 16.6439 8.9276 16.3461L8.48122 15.8993C8.35368 15.8142 8.18363 15.644 7.97107 15.3887C7.75851 15.1334 7.32276 14.5803 6.66382 13.7293C6.00487 12.8783 5.35656 11.9635 4.71887 10.9848C4.08119 10.0062 3.33722 8.71909 2.48697 7.12348C1.63673 5.52788 0.850248 3.87909 0.127537 2.17711C0.0425124 1.96436 0 1.79417 0 1.66652C0 1.53887 0.0212562 1.4325 0.0637686 1.3474L0.127537 1.28357C0.297587 1.02828 0.637686 0.900629 1.14783 0.900629H6.18555C6.31309 0.900629 6.44063 0.932541 6.56816 0.996366L6.88701 1.15593L6.95078 1.21975C7.16334 1.3474 7.31213 1.53887 7.39716 1.79417C7.65223 2.38986 7.93919 3.01746 8.25803 3.67698C8.57687 4.33649 8.82132 4.83645 8.99137 5.17685L9.24644 5.68744C9.62906 6.41078 9.97978 7.03838 10.2986 7.57025C10.6175 8.10212 10.9044 8.51698 11.1595 8.81482C11.4146 9.11267 11.6697 9.34669 11.9247 9.51689C12.1798 9.68709 12.3924 9.77218 12.5624 9.77218C12.7325 9.77218 12.9025 9.75091 13.0726 9.70836L13.1363 9.61262L13.3595 9.19777L13.6146 8.36805L13.774 6.9001V4.60243C13.7315 4.13439 13.6677 3.69825 13.5827 3.29403C13.4977 2.88981 13.4127 2.60261 13.3276 2.43241L13.2639 2.24094C12.9663 1.81544 12.4349 1.53887 11.6697 1.41122C11.5421 1.41122 11.5846 1.2623 11.7972 0.964454C12.0097 0.751706 12.2436 0.581509 12.4986 0.45386C13.1363 0.113465 14.5817 -0.0354579 16.8349 0.00709157C17.8127 0.00709157 18.6417 0.0921904 19.3219 0.262388C19.5344 0.304938 19.7257 0.379399 19.8958 0.485773C20.0658 0.592146 20.1934 0.741069 20.2784 0.932541C20.3634 1.12401 20.4272 1.31549 20.4697 1.50696C20.5122 1.69843 20.5335 1.975 20.5335 2.33667V3.32595C20.491 3.66634 20.4697 4.09184 20.4697 4.60243V6.13421C20.4697 6.26186 20.4591 6.51715 20.4378 6.9001C20.4166 7.28304 20.4059 7.58089 20.4059 7.79364C20.4059 8.00638 20.4272 8.25104 20.4697 8.52761C20.5122 8.80418 20.5866 9.03821 20.6929 9.22968C20.7992 9.42115 20.9374 9.55944 21.1074 9.64454C21.1924 9.68709 21.2881 9.719 21.3944 9.74027C21.5006 9.76155 21.6601 9.69772 21.8726 9.5488C22.0852 9.39988 22.319 9.18713 22.5741 8.91056C22.8292 8.63399 23.148 8.21913 23.5306 7.66599C23.9132 7.11284 24.3171 6.4746 24.7422 5.75126C25.4649 4.47478 26.1239 3.09192 26.719 1.60269C26.7615 1.5176 26.8147 1.42186 26.8785 1.31549C26.9422 1.20911 27.0166 1.13465 27.1016 1.0921H27.1654L27.2292 1.02828L27.4843 0.964454H27.8669L33.0959 0.900629C33.5635 0.85808 33.9568 0.879355 34.2756 0.964454C34.5945 1.04955 34.7751 1.15593 34.8176 1.28357L34.9452 1.47505Z" fill="white"/>
</svg>
